<svg xmlns="http://www.w3.org/2000/svg" width="715.178" height="388.719" viewBox="0 0 715.178 388.719">
  <g id="error-404" transform="translate(0.137)">
    <ellipse id="Ellipse_14" data-name="Ellipse 14" cx="350.973" cy="23.235" rx="350.973" ry="23.235" transform="translate(8.745 342.249)" fill="#f2f2f2"/>
    <path id="Path_39" data-name="Path 39" d="M534.068,324.894c-57.183,0-98.24,36.687-98.24,122.29,0,97.017,41.057,122.7,98.24,122.7s100.686-28.127,100.686-122.7C634.754,346.091,591.251,324.894,534.068,324.894Zm.376,212.785c-39.606,0-60.3-23.236-60.3-90.432,0-59.291,21.539-90.557,61.145-90.557s61.145,20.538,61.145,90.557C596.436,512.749,574.051,537.679,534.444,537.679Z" transform="translate(-187.802 -213.774)" fill="#535353"/>
    <path id="Path_40" data-name="Path 40" d="M295.179,507.057H271.536V437.435a13.943,13.943,0,0,0-13.943-13.943h-5.54a13.943,13.943,0,0,0-13.943,13.943v69.622H171.422a7.96,7.96,0,0,1-7.038-11.678l70.582-133.589a13.943,13.943,0,0,0-6.374-19.121l-4.167-1.968a13.943,13.943,0,0,0-18.25,6.035L120.091,507.772a18.906,18.906,0,0,0-2.233,8.913h0a18.907,18.907,0,0,0,18.907,18.906H238.11v44.024a16.713,16.713,0,0,0,16.713,16.713h0a16.713,16.713,0,0,0,16.713-16.713V535.591h23.643a14.267,14.267,0,0,0,14.267-14.267h0a14.267,14.267,0,0,0-14.267-14.267Z" transform="translate(-81.394 -218.616)" fill="#a93b3f"/>
    <path id="Path_41" data-name="Path 41" d="M953.176,507.057H929.533V437.435a13.943,13.943,0,0,0-13.943-13.943h-5.54a13.943,13.943,0,0,0-13.943,13.943v69.622H829.419a7.96,7.96,0,0,1-7.038-11.678l70.582-133.59a13.943,13.943,0,0,0-6.374-19.121l-4.167-1.968a13.943,13.943,0,0,0-18.25,6.035L778.088,507.772a18.907,18.907,0,0,0-2.233,8.913h0a18.906,18.906,0,0,0,18.906,18.906H896.107v44.024a16.713,16.713,0,0,0,16.713,16.713h0a16.713,16.713,0,0,0,16.713-16.713V535.591h23.643a14.267,14.267,0,0,0,14.267-14.267h0a14.267,14.267,0,0,0-14.267-14.267Z" transform="translate(-301.591 -218.616)" fill="#a93b3f"/>
    <path id="Path_42" data-name="Path 42" d="M304.982,494.8H281.339V425.182A13.943,13.943,0,0,0,267.4,411.239h-5.54a13.943,13.943,0,0,0-13.943,13.943V494.8H181.225a7.96,7.96,0,0,1-7.038-11.678l70.582-133.589a13.943,13.943,0,0,0-6.374-19.121l-4.167-1.968a13.943,13.943,0,0,0-18.25,6.035L129.894,495.518a18.907,18.907,0,0,0-2.233,8.913h0a18.907,18.907,0,0,0,18.907,18.906H247.913v44.024a16.713,16.713,0,0,0,16.713,16.713h0a16.713,16.713,0,0,0,16.713-16.713V523.338h23.643a14.267,14.267,0,0,0,14.267-14.267h0A14.267,14.267,0,0,0,304.982,494.8Z" transform="translate(-84.674 -214.515)" fill="none" stroke="#3f3d56" stroke-miterlimit="10" stroke-width="1"/>
    <path id="Path_43" data-name="Path 43" d="M971.555,494.8H947.913V425.182a13.943,13.943,0,0,0-13.943-13.943h-5.54a13.943,13.943,0,0,0-13.943,13.943V494.8H847.8a7.96,7.96,0,0,1-7.038-11.678l70.582-133.589a13.943,13.943,0,0,0-6.374-19.121l-4.167-1.968a13.943,13.943,0,0,0-18.25,6.035L796.467,495.518a18.9,18.9,0,0,0-2.233,8.913h0a18.907,18.907,0,0,0,18.907,18.907H914.487v44.024A16.713,16.713,0,0,0,931.2,584.075h0a16.713,16.713,0,0,0,16.713-16.713V523.338h23.643a14.267,14.267,0,0,0,14.267-14.267h0A14.267,14.267,0,0,0,971.555,494.8Z" transform="translate(-307.742 -214.515)" fill="none" stroke="#535353" stroke-miterlimit="10" stroke-width="1"/>
    <path id="Path_44" data-name="Path 44" d="M553.674,313.866c-57.183,0-98.24,36.687-98.24,122.29,0,97.017,41.057,122.7,98.24,122.7s100.686-28.127,100.686-122.7C654.359,335.063,610.857,313.866,553.674,313.866Zm.376,212.785c-39.606,0-60.3-23.236-60.3-90.432,0-59.291,21.539-90.557,61.145-90.557s61.145,20.538,61.145,90.557C616.042,501.721,593.656,526.651,554.05,526.651Z" transform="translate(-194.363 -210.084)" fill="none" stroke="#535353" stroke-miterlimit="10" stroke-width="1"/>
    <circle id="Ellipse_15" data-name="Ellipse 15" cx="8.584" cy="8.584" r="8.584" transform="translate(304.891 3.559)"/>
    <ellipse id="Ellipse_16" data-name="Ellipse 16" cx="24.077" cy="31.195" rx="24.077" ry="31.195" transform="translate(310.334 0)"/>
    <path id="Path_45" data-name="Path 45" d="M553.552,224.174c-12.061,0-22.051-11.491-23.8-26.484a40.512,40.512,0,0,0-.273,4.711c0,17.228,10.779,31.195,24.077,31.195s24.076-13.966,24.076-31.195a40.539,40.539,0,0,0-.273-4.711C575.6,212.683,565.613,224.174,553.552,224.174Z" transform="translate(-219.141 -171.205)" opacity="0.1"/>
    <path id="Path_46" data-name="Path 46" d="M620.972,337.719c-.517,2.125-2.746,3.826-5.216,5.015-5.191,2.5-11.594,3.245-17.8,3.5a30.068,30.068,0,0,1-4.754-.088,13.665,13.665,0,0,1-8.151-3.747,1.118,1.118,0,0,1,.029-1.892c3.306-3.632,8.824-5.859,14.382-7.463,4.215-1.216,11.565-4.365,16.162-3.94C620.073,329.512,621.625,335.036,620.972,337.719Z" transform="translate(-237.568 -215.168)" fill="#3f3d56"/>
    <path id="Path_47" data-name="Path 47" d="M620.972,337.719c-.517,2.125-2.746,3.826-5.216,5.015-5.191,2.5-11.594,3.245-17.8,3.5a30.068,30.068,0,0,1-4.754-.088,13.665,13.665,0,0,1-8.151-3.747,1.118,1.118,0,0,1,.029-1.892c3.306-3.632,8.824-5.859,14.382-7.463,4.215-1.216,11.565-4.365,16.162-3.94C620.073,329.512,621.625,335.036,620.972,337.719Z" transform="translate(-237.568 -215.168)" opacity="0.1"/>
    <path id="Path_48" data-name="Path 48" d="M539.375,300.754a13.154,13.154,0,0,0-.8,10.03,17.525,17.525,0,0,0,5.875,8.315c6.716,5.384,15.96,6.125,24.568,6.05a189.392,189.392,0,0,0,22.559-1.546,26.972,26.972,0,0,0,7.32-1.7,11.219,11.219,0,0,0,6.278-6.338,7.721,7.721,0,0,0-2.085-8.366c-2.087-1.7-4.965-1.93-7.65-2.091l-15.361-.923c1.518-1.536,3.538-2.4,5.387-3.521,2.452-1.481,4.081-3.969,5.864-6.211a85.829,85.829,0,0,1,8.942-9.193,13.2,13.2,0,0,0,4.449,7.2c2.135,1.979,4.6,3.572,6.816,5.456,5.375,4.563,9.246,10.757,14.9,14.971a29.162,29.162,0,0,0,10.678-5.331l-2.2-3.98a2.621,2.621,0,0,0-.828-1.033c-.622-.383-1.424-.185-2.146-.294-1.93-.289-2.773-2.518-3.53-4.316-2.079-4.938-6.06-8.769-9.46-12.91a65.211,65.211,0,0,1-6.651-9.8,33.513,33.513,0,0,0-3.738-5.99,8.43,8.43,0,0,0-6.08-3.181c-2.084,0-4.006,1.054-5.8,2.118a153.34,153.34,0,0,0-15.722,10.711c-2.624,2.037-5.232,4.189-8.31,5.439-1.3.526-2.662.885-3.905,1.525-2.178,1.121-3.831,3.017-5.61,4.7A37.284,37.284,0,0,1,539.375,300.754Z" transform="translate(-221.973 -194.084)"/>
    <path id="Path_49" data-name="Path 49" d="M578.429,240.24a15.817,15.817,0,0,1-1.154,5.345,6.683,6.683,0,0,1-3.837,3.708,8.235,8.235,0,0,1-3.741.121,7.24,7.24,0,0,1-3.048-1.038,6.5,6.5,0,0,1-2.42-4.487c-.262-1.727-.144-3.492-.312-5.232a28.592,28.592,0,0,0-.8-4.162c-.113-.454-.228-.907-.341-1.359s-.22-.9-.32-1.357c-.092-.425-.178-.852-.251-1.281-.061-.362-.115-.726-.155-1.093a12.253,12.253,0,0,0-.538-3.2,9.721,9.721,0,0,0-1.122-1.9c-.191-.272-.375-.544-.544-.827a3.92,3.92,0,0,1-.647-2.494,2.193,2.193,0,0,1,.1-.4c.017-.05.036-.1.057-.149a1.2,1.2,0,0,0,.818-.764,2.285,2.285,0,0,0-.1-1.183,7.53,7.53,0,0,0-.639-1.522c-.176-.318-.773-.892-.777-1.256-.008-.733,1.424-1.323,2-1.612a11.176,11.176,0,0,1,5.72-1.16,4.218,4.218,0,0,1,3.339,1.537c.628.957.544,2.2.812,3.308a.976.976,0,0,0,.2.442.892.892,0,0,0,.492.226,3.027,3.027,0,0,0,.942.038h0a1.946,1.946,0,0,0,.247-.036,3.3,3.3,0,0,0,1.352-.584q.39-.1.785-.17a.165.165,0,0,0,.031-.006c1.049,3.31,1.185,6.859,2.043,10.229a26.261,26.261,0,0,1,1.12,5.058c.006.075.008.153.01.23.013.555-.031,1.114-.008,1.666a4.659,4.659,0,0,0,.084.741,10.357,10.357,0,0,0,.35,1.16l.006.019c.04.121.077.245.109.368.023.09.044.178.061.268l0,.006A9.936,9.936,0,0,1,578.429,240.24Z" transform="translate(-228.906 -176.301)" fill="#d8905f"/>
    <circle id="Ellipse_17" data-name="Ellipse 17" cx="12.352" cy="12.352" r="12.352" transform="translate(322.477 17.586)" fill="#d8905f"/>
    <path id="Path_50" data-name="Path 50" d="M648.116,275.893a20.258,20.258,0,0,0-3.484-9.384q.481,2.858.963,5.714a2.138,2.138,0,0,1-2.24-.689,6.877,6.877,0,0,1-1.175-2.179,44.885,44.885,0,0,0-5.462-9.8c-7.864-.655-15.637-3.915-22.552-7.715s-13.391-8.351-20.216-12.31a28.989,28.989,0,0,0-3.689-1.884c-2.135-.856-4.533-1.3-6.557-2.307-.136-.067-.272-.138-.406-.211a8.368,8.368,0,0,1-1.294-.869,6.891,6.891,0,0,1-.62-.569,13.54,13.54,0,0,1-2.368-3.961c-1.087-2.4-1.474-5.3-2.558-7.707a7.45,7.45,0,0,1,1.664-1.175h0c.088-.046.176-.09.266-.132a7.949,7.949,0,0,1,1.334-.488q.389-.1.785-.17a.165.165,0,0,0,.031-.006,7.7,7.7,0,0,1,3.653.289,16.894,16.894,0,0,1,4.619,2.843,75.859,75.859,0,0,1,6.752,5.355c1.193,1.143,2.282,2.4,3.565,3.438a28.04,28.04,0,0,0,3.364,2.23q10.417,6.205,20.836,12.409c2.351,1.4,4.7,2.8,7,4.284,3.492,2.253,6.859,4.694,10.223,7.133q2.974,2.154,5.946,4.311a6.475,6.475,0,0,1,1.685,1.558,5.639,5.639,0,0,1,.747,2.284A20.884,20.884,0,0,1,648.116,275.893Z" transform="translate(-234.863 -178.653)" fill="#d8905f"/>
    <path id="Path_51" data-name="Path 51" d="M573.272,251.935c-.833,3.737-4.61,6-6.584,9.279-2.454,4.074-1.453,8.81-.532,13.477l-5.052,4.353c-.93.8-1.859,1.6-2.86,2.305a38.133,38.133,0,0,1-4.564,2.621l-4.472,2.3a21.377,21.377,0,0,1-4.378,1.855,16.87,16.87,0,0,1-8.963-.647,4.053,4.053,0,0,1-.98-.4,1.594,1.594,0,0,1-.465-.421,2.6,2.6,0,0,1-.3-1.69,79.414,79.414,0,0,1,2.682-14.431,42.539,42.539,0,0,1,6.164-15.122,45.482,45.482,0,0,1,5.276-7.661,12.294,12.294,0,0,0,2.445-3.153c.743-1.7.456-3.641.607-5.487a11.411,11.411,0,0,1,1.086-4v0a11.373,11.373,0,0,1,1.16-1.918l.609,1.417q.2.465.4.928.258.6.511,1.189l1.461,3.4a14.366,14.366,0,0,0,2.219,3.955,4.324,4.324,0,0,0,7.4-.567,14.145,14.145,0,0,0,1.512-4,12.785,12.785,0,0,0,.167-5.213c-.5-3.333-1.922-6.737-2.952-9.834a9.943,9.943,0,0,1-.718-3.241,2.233,2.233,0,0,1,.038-.373l.019-.1a7.948,7.948,0,0,1,1.334-.488q.389-.1.785-.17,1.36,7.361,2.724,14.722c.021.115.044.23.065.348.13.7.262,1.407.408,2.108.132.636.274,1.271.433,1.9l.006.019c.054.214.111.425.17.636l0,.006c.161.578.341,1.151.544,1.717C571.915,244.97,574.061,248.4,573.272,251.935Z" transform="translate(-220.686 -178.707)" fill="#a93b3f"/>
    <path id="Path_52" data-name="Path 52" d="M668.318,340.946a4.38,4.38,0,0,0,.406,2.091c.773,1.413,2.628,1.734,4.233,1.866a125.336,125.336,0,0,0,28.121-.857,3.25,3.25,0,0,0,1.431-.444c1.324-.928.508-3.19-.938-3.915s-3.161-.55-4.747-.863a14.954,14.954,0,0,1-4.443-1.927q-4.826-2.772-9.51-5.781c-1.859-1.194-4.054-2.468-6.148-1.76C671.052,331.275,668.281,334.827,668.318,340.946Z" transform="translate(-265.602 -215.199)"/>
    <path id="Path_53" data-name="Path 53" d="M544.826,235.5v0c-.015.088-.029.174-.048.26-.023.142-.05.287-.077.429-.26,1.329-.578,2.653-.944,3.967-1,3.632-2.351,7.206-3.687,10.728q-5.376,14.163-10.755,28.329c-.9,2.378-1.807,4.759-2.835,7.089-.343.777-.7,1.56-1.049,2.351a32.714,32.714,0,0,0-2.872,8.772,18.263,18.263,0,0,0-.128,6.015,6.172,6.172,0,0,0,3.48,4.637c.917.358,2.23.837,1.979,1.79-.136.523-.731.779-1.265.867a4.865,4.865,0,0,1-3.97-1.143c-1-.89-1.773-2.274-3.107-2.422a5.255,5.255,0,0,0-2.619.84c-3.45,1.577-7.47.473-11.094-.647a3.892,3.892,0,0,1,3.222-2.728,26.07,26.07,0,0,1,4.47-.126,2.335,2.335,0,0,0,1.359-.35,2.465,2.465,0,0,0,.733-1.252,52.529,52.529,0,0,0,2.138-8.747c.482-3.1.683-6.258,1.369-9.325.534-2.393,1.359-4.711,2.066-7.06a149.546,149.546,0,0,0,3.367-14.689,51.92,51.92,0,0,0,.948-6.233c.119-1.738.063-3.484.23-5.215a40.521,40.521,0,0,1,1.4-6.651q.961-3.558,1.92-7.112c.948-3.507,1.966-7.15,4.369-9.876a9.289,9.289,0,0,1,6.672-3.186,6.575,6.575,0,0,1,1.417.153c.077.019.155.038.232.059a5.746,5.746,0,0,1,1.447.6c.741-.471,1.118-.306,1.61.421a4.64,4.64,0,0,1,.586,2.525A34.877,34.877,0,0,1,544.826,235.5Z" transform="translate(-211.23 -180.282)" fill="#d8905f"/>
    <path id="Path_54" data-name="Path 54" d="M562.876,238.151l-.031.031-.17.17-1.683,1.681-.825-3.465-2.828-11.879a6.576,6.576,0,0,1,1.417.153,2.177,2.177,0,0,1,.1-.4l.134.459.959,3.262,1.815,6.193.3,1.02v0Z" transform="translate(-228.465 -180.158)" fill="#a93b3f"/>
    <path id="Path_55" data-name="Path 55" d="M568.235,183.876a8.371,8.371,0,0,1-2.462,5.919,8.175,8.175,0,0,1-.9.783,8.335,8.335,0,0,1-5.014,1.679H549.81a8.377,8.377,0,0,1,0-16.754h10.044a8.4,8.4,0,0,1,8.381,8.373Z" transform="translate(-223.143 -163.781)"/>
    <circle id="Ellipse_18" data-name="Ellipse 18" cx="8.584" cy="8.584" r="8.584" transform="translate(345.926 3.559)"/>
    <path id="Path_56" data-name="Path 56" d="M595.4,163.234c-.105,0-.209,0-.314.008a8.582,8.582,0,0,1,0,17.152c.1,0,.209.008.314.008a8.584,8.584,0,1,0,0-17.168Z" transform="translate(-241.096 -159.675)" opacity="0.1"/>
    <path id="Path_57" data-name="Path 57" d="M529.878,163.234c.105,0,.21,0,.314.008a8.582,8.582,0,0,0,0,17.152c-.1,0-.209.008-.314.008a8.584,8.584,0,1,1,0-17.168Z" transform="translate(-216.403 -159.675)" opacity="0.1"/>
    <path id="Path_58" data-name="Path 58" d="M566.559,198.159a8.335,8.335,0,0,1-5.014,1.679H551.5a8.335,8.335,0,0,1-5.014-1.679Z" transform="translate(-224.834 -171.362)" opacity="0.1"/>
    <path id="Path_59" data-name="Path 59" d="M674.14,289.842s2.164,6.235,4.145,4.575l-1.579-8.15Z" transform="translate(-267.553 -200.847)" fill="#fbbebe"/>
    <path id="Path_60" data-name="Path 60" d="M1065.33,563.923a13.848,13.848,0,1,0,1.844-26.558l.346,7.127-3.372-6.108a13.8,13.8,0,0,0-7.108,7.8,13.588,13.588,0,0,0-.8,3.746A13.845,13.845,0,0,0,1065.33,563.923Z" transform="translate(-395.411 -284.775)" fill="#57b894"/>
    <path id="Path_61" data-name="Path 61" d="M1093.683,640.6c-1.19-6.062,3.968-11.435,9.063-14.928s11.048-6.925,12.787-12.852c2.5-8.519-4.944-16.321-10.736-23.049a83.364,83.364,0,0,1-10.994-16.339,22.493,22.493,0,0,1-2.63-7.43c-.456-3.776.757-7.534,1.979-11.136q6.108-18,13.06-35.7" transform="translate(-407.079 -278.789)" fill="none" stroke="#3f3d56" stroke-miterlimit="10" stroke-width="1"/>
    <path id="Path_62" data-name="Path 62" d="M1066.187,561.165a13.848,13.848,0,1,0,1.844-26.558l.347,7.127-3.372-6.108a13.8,13.8,0,0,0-7.108,7.8,13.576,13.576,0,0,0-.8,3.746A13.845,13.845,0,0,0,1066.187,561.165Z" transform="translate(-395.698 -283.852)" fill="none" stroke="#3f3d56" stroke-miterlimit="10" stroke-width="1"/>
    <path id="Path_63" data-name="Path 63" d="M1092.033,510.885A13.832,13.832,0,0,1,1102,502.1l1.14,6.776,2.114-7.116a13.846,13.846,0,1,1-13.221,9.122Z" transform="translate(-407.122 -272.963)" fill="#57b894"/>
    <path id="Path_64" data-name="Path 64" d="M1093.176,507.207a13.831,13.831,0,0,1,9.967-8.781l1.14,6.776,2.114-7.116a13.846,13.846,0,1,1-13.221,9.122Z" transform="translate(-407.504 -271.732)" fill="none" stroke="#3f3d56" stroke-miterlimit="10" stroke-width="1"/>
    <path id="Path_65" data-name="Path 65" d="M1103.453,611.976a13.846,13.846,0,0,0,12.255-24.633l-1.624,5.469-1.152-6.856-.035-.013a13.847,13.847,0,1,0-9.444,26.033Z" transform="translate(-408.167 -300.854)" fill="#57b894"/>
    <path id="Path_66" data-name="Path 66" d="M1104.444,608.251a13.846,13.846,0,0,0,12.255-24.633l-1.624,5.469-1.152-6.856a.225.225,0,0,0-.035-.013,13.847,13.847,0,0,0-9.444,26.033Z" transform="translate(-408.498 -299.608)" fill="none" stroke="#3f3d56" stroke-miterlimit="10" stroke-width="1"/>
    <path id="Path_67" data-name="Path 67" d="M1086.271,651.885a13.84,13.84,0,1,0,2.668-10.843l6.17,9.286-8.43-4.929a13.718,13.718,0,0,0-.408,6.486Z" transform="translate(-405.4 -317.767)" fill="#57b894"/>
    <path id="Path_68" data-name="Path 68" d="M1087.128,649.127a13.84,13.84,0,1,0,2.668-10.844l6.17,9.286-8.43-4.929A13.717,13.717,0,0,0,1087.128,649.127Z" transform="translate(-405.687 -316.844)" fill="none" stroke="#3f3d56" stroke-miterlimit="10" stroke-width="1"/>
    <path id="Path_69" data-name="Path 69" d="M69.047,619.256a9.1,9.1,0,1,0,1.212-17.449l.228,4.683-2.216-4.013A9.064,9.064,0,0,0,63.6,607.6a8.922,8.922,0,0,0-.523,2.461,9.1,9.1,0,0,0,5.97,9.194Z" transform="translate(-63.054 -306.375)" fill="#57b894"/>
    <path id="Path_70" data-name="Path 70" d="M87.676,669.636c-.782-3.982,2.607-7.513,5.954-9.808s7.259-4.55,8.4-8.444c1.641-5.6-3.248-10.723-7.054-15.144A54.778,54.778,0,0,1,87.754,625.5a14.777,14.777,0,0,1-1.728-4.881c-.3-2.481.5-4.95,1.3-7.316q4.013-11.826,8.581-23.453" transform="translate(-70.72 -302.442)" fill="none" stroke="#3f3d56" stroke-miterlimit="10" stroke-width="1"/>
    <path id="Path_71" data-name="Path 71" d="M69.61,617.444A9.1,9.1,0,1,0,70.822,600l.228,4.683-2.216-4.013a9.064,9.064,0,0,0-4.67,5.125,8.922,8.922,0,0,0-.523,2.461,9.1,9.1,0,0,0,5.97,9.194Z" transform="translate(-63.242 -305.769)" fill="none" stroke="#3f3d56" stroke-miterlimit="10" stroke-width="1"/>
    <path id="Path_72" data-name="Path 72" d="M86.592,584.409a9.087,9.087,0,0,1,6.548-5.769l.749,4.452,1.389-4.676a9.1,9.1,0,1,1-8.686,5.993Z" transform="translate(-70.748 -298.615)" fill="#57b894"/>
    <path id="Path_73" data-name="Path 73" d="M87.343,581.993a9.087,9.087,0,0,1,6.548-5.769l.749,4.452L96.029,576a9.1,9.1,0,1,1-8.686,5.993Z" transform="translate(-70.999 -297.806)" fill="none" stroke="#3f3d56" stroke-miterlimit="10" stroke-width="1"/>
    <path id="Path_74" data-name="Path 74" d="M94.095,650.828a9.1,9.1,0,0,0,8.052-16.184l-1.067,3.593-.757-4.5-.023-.009a9.1,9.1,0,1,0-6.2,17.1Z" transform="translate(-71.435 -316.94)" fill="#57b894"/>
    <path id="Path_75" data-name="Path 75" d="M94.746,648.38A9.1,9.1,0,0,0,102.8,632.2l-1.067,3.593-.757-4.5-.023-.009a9.1,9.1,0,0,0-6.2,17.1Z" transform="translate(-71.652 -316.121)" fill="none" stroke="#3f3d56" stroke-miterlimit="10" stroke-width="1"/>
    <path id="Path_76" data-name="Path 76" d="M82.806,677.049a9.093,9.093,0,1,0,1.753-7.124l4.054,6.1-5.539-3.238a9.012,9.012,0,0,0-.268,4.262Z" transform="translate(-69.617 -328.052)" fill="#57b894"/>
    <path id="Path_77" data-name="Path 77" d="M83.369,675.237a9.093,9.093,0,1,0,1.753-7.124l4.054,6.1-5.539-3.238a9.013,9.013,0,0,0-.268,4.262Z" transform="translate(-69.805 -327.446)" fill="none" stroke="#3f3d56" stroke-miterlimit="10" stroke-width="1"/>
    <ellipse id="Ellipse_19" data-name="Ellipse 19" cx="11.311" cy="14.638" rx="11.311" ry="14.638" transform="translate(308.687 197.686)" fill="#707070"/>
    <ellipse id="Ellipse_20" data-name="Ellipse 20" cx="11.311" cy="14.638" rx="11.311" ry="14.638" transform="translate(370.232 198.019)" fill="#707070"/>
    <path id="Path_78" data-name="Path 78" d="M602.752,536.476c0,6.614-9.235,11.976-20.626,11.976S561.5,543.09,561.5,536.476c0-5.729,6.926-10.519,16.181-11.69a33.331,33.331,0,0,1,4.445-.286,33.738,33.738,0,0,1,7.405.8C597.263,527.022,602.752,531.38,602.752,536.476Z" transform="translate(-229.858 -280.572)" fill="#707070"/>
    <ellipse id="Ellipse_21" data-name="Ellipse 21" cx="11.311" cy="14.638" rx="11.311" ry="14.638" transform="translate(311.349 194.36)" fill="none" stroke="#535353" stroke-miterlimit="10" stroke-width="1"/>
    <ellipse id="Ellipse_22" data-name="Ellipse 22" cx="11.311" cy="14.638" rx="11.311" ry="14.638" transform="translate(372.894 194.692)" fill="none" stroke="#535353" stroke-miterlimit="10" stroke-width="1"/>
    <ellipse id="Ellipse_23" data-name="Ellipse 23" cx="20.626" cy="11.976" rx="20.626" ry="11.976" transform="translate(334.303 240.601)" fill="none" stroke="#535353" stroke-miterlimit="10" stroke-width="1"/>
    <path id="Path_79" data-name="Path 79" d="M597.641,526.129a3.285,3.285,0,0,1-.878,2.257,2.887,2.887,0,0,1-2.116.937h-6.654A3.1,3.1,0,0,1,585,526.129a3.263,3.263,0,0,1,.546-1.824,31.32,31.32,0,0,1,4.445-.305,31.724,31.724,0,0,1,7.405.852,3.375,3.375,0,0,1,.246,1.278Z" transform="translate(-237.721 -280.404)" fill="#fff"/>
    <circle id="Ellipse_24" data-name="Ellipse 24" cx="3.327" cy="3.327" r="3.327" transform="translate(319.333 201.678)" fill="#fff"/>
    <circle id="Ellipse_25" data-name="Ellipse 25" cx="3.327" cy="3.327" r="3.327" transform="translate(381.211 201.678)" fill="#fff"/>
    <circle id="Ellipse_26" data-name="Ellipse 26" cx="3.327" cy="3.327" r="3.327" transform="translate(384.538 232.95)" fill="#a93b3f" opacity="0.3"/>
    <circle id="Ellipse_27" data-name="Ellipse 27" cx="3.327" cy="3.327" r="3.327" transform="translate(303.365 232.95)" fill="#a93b3f" opacity="0.3"/>
  </g>
</svg>
